# ProBuilder 4.2.3
# https://unity3d.com/unity/features/worldbuilding/probuilder
# 11/17/2020 1:05:54 PM

mtllib ./FireMolecule_02.mtl
o FireMolecule_02

g Fire Unit
v 0.05243374 0 0.05243427
v -0.8333288 0 0.05243427
v 0 1 0
v -1 1 0
v -1.052425 -0.230011 -1.052424
v -1 1 -1
v 0.05243374 0 -1.052424
v 4.544854E-06 0.769989 -0.999995
v -0.4066003 2.06489 -0.4065994
v -0.593403 2.157338 -0.4065991
v -0.4065973 2.157338 -0.5933988
v -0.5934 2.157338 -0.5933985
v -0.2072968 -0.6519057 -0.7927088
v -0.7492495 -0.6519057 -0.7927123
v -0.2072917 -0.6519057 -0.2507562
v -0.5868307 -0.8147475 -0.2507599

vt 0.05243374 -0.002745581
vt -0.8333288 -0.002745581
vt 0 0.9986281
vt -1 0.9986281
vt -0.1360674 0.1227123
vt -1.261907 -0.1098937
vt -0.2245957 1.133994
vt -1.199048 1.100539
vt 1.042961 -0.2754148
vt -0.0618529 -0.04519128
vt 0.9910079 0.9557329
vt -0.008956457 0.726319
vt 1.052424 -0.00356201
vt -0.05243427 -0.00356201
vt 0.999995 0.7682099
vt 0 0.9976898
vt 1.280299 -1.048932
vt 1.488726 -1.048931
vt 1.321302 -1.253283
vt 1.488724 -1.219687
vt -0.2072968 -0.7927088
vt -0.7492495 -0.7927123
vt -0.2072917 -0.2507562
vt -0.5868307 -0.2507599
vt 0 0.9342169
vt -1 0.9342169
vt -0.4066003 2.074091
vt -0.593403 2.160457
vt 0.9973928 0.7131779
vt 0 0.9542232
vt 0.621167 2.167082
vt 0.4348539 2.082894
vt 0 0.6120087
vt -1 0.6120087
vt -0.4065991 1.838692
vt -0.5933985 1.838693
vt 1.071779 0.6667658
vt 0.07455808 0.4249725
vt 0.6359937 1.883388
vt 0.449711 1.879093
vt 0.04257332 0.4180816
vt 1.142941 0.167465
vt 0.2778551 -0.2922251
vt 0.8176051 -0.3116075
vt -0.05243427 0.0194066
vt 1.052424 0.0194066
vt 0.2507562 -0.6823329
vt 0.7927088 -0.6823348
vt -1.315827 0.1083925
vt -0.1954661 0.3660989
vt -0.9783055 -0.364302
vt -0.4125565 -0.5076137
vt -0.8333288 0.01828731
vt 0.05243374 0.01828731
vt -0.5868307 -0.8510458
vt -0.2072917 -0.6984277

vn 0 0.05236233 0.9986281
vn -0.9635809 -0.148956 0.2220901
vn -0.981337 -0.05318669 0.111045
vn -0.9990929 0.04258264 0
vn -0.008943693 0.04296105 -0.9990367
vn 0.003466104 0.055981 -0.9982635
vn 0.0158759 0.06900095 -0.9974903
vn 0.9976898 0.06793354 0
vn 0.9981399 0.05983482 -0.005947694
vn 0.9985899 0.05173608 -0.01189539
vn 0.4054542 0.8192698 0.4054675
vn 0.2027271 0.9096349 0.2027337
vn 0 1 0
vn 0 -1 0
vn 0.1834055 -0.9274631 -0.183406
vn 0.3668109 -0.8549261 -0.3668121
vn 0 0.3567055 0.9342169
vn 0.07024548 0.3202911 0.9413648
vn 0.140491 0.2838767 0.9485127
vn 0.9517403 0.2990954 -0.06879126
vn 0.9185139 0.3579419 0.06874693
vn 0.8852875 0.4167883 0.2062851
vn -0.9434691 0.3314604 0
vn 0.07092962 0.3083556 -0.9486231
vn 0.03546404 0.2947999 -0.9541297
vn -1.530994E-06 0.2812442 -0.9596363
vn 0.08266632 -0.3970878 -0.91405
vn 0.04133587 -0.460653 -0.882817
vn 5.432181E-06 -0.5242182 -0.851584
vn 0.9289853 -0.3701167 0
vn -0.8528972 -0.4509854 0.2630182
vn -0.8879172 -0.3973562 0.2181672
vn -0.9229372 -0.3437271 0.1733163
vn 0 -0.3487664 0.9372097
vn 0.1027136 -0.4137898 0.8953769
vn 0.2054272 -0.4788133 0.8535441

usemtl MatEmpty
f 3/3/1 4/4/1 2/2/1 1/1/1
f 4/7/3 6/8/4 5/6/3 2/5/2
f 6/11/6 8/12/7 7/10/6 5/9/5
f 8/15/9 3/16/10 1/14/9 7/13/8
f 11/19/12 12/20/13 10/18/12 9/17/11
f 15/23/15 16/24/16 14/22/15 13/21/14
f 9/27/18 10/28/19 4/26/18 3/25/17
f 11/31/21 9/32/22 3/30/21 8/29/20
f 10/35/23 12/36/23 6/34/23 4/33/23
f 12/39/25 11/40/26 8/38/25 6/37/24
f 13/43/28 14/44/29 5/42/28 7/41/27
f 15/47/30 13/48/30 7/46/30 1/45/30
f 14/51/32 16/52/33 2/50/32 5/49/31
f 16/55/35 15/56/36 1/54/35 2/53/34

