# ProBuilder 4.2.3
# https://unity3d.com/unity/features/worldbuilding/probuilder
# 11/20/2020 6:32:28 PM

mtllib ./wastePileSmall2.mtl
o wastePileSmall2

g Net fragment (5)
v 0.7331995 0.7435944 0.04400946
v 1.542645 1.971017E-05 1.01372
v -0.3921066 0.7384456 0.9516851
v -0.7024677 0.9289219 0.1645052
v -0.3536366 0.6432076 -1.047936
v 0.9722434 -0.008136806 -1.377001
v -1.601877 0.3564983 0.7005658
v -0.6502988 0.007155275 2.261691
v -0.9805135 0.02415993 -1.37959
v -1.071312 0.4527314 -0.3515688
v -2.04906 0.0241483 0.9434836

vt 0 1.701302
vt 0.3249197 0.8506508
vt -0.5257311 1.376382
vt 0 0
vt 0.5257311 0.8506508
vt 1.051462 0
vt 0.5257311 -0.8506508
vt 0.5257311 1.376382
vt -0.3249197 0.8506508
vt -0.5257311 0.8506508
vt -1.051462 1.701302
vt -1.376382 0.8506508
vt -0.5257311 0.3249197
vt 0.5257311 0.3249197
vt 1.051462 1.701302
vt 1.376382 0.8506508
vt -1.051462 0

vn 0.3161608 0.8617132 0.3968537
vn 0.1407834 0.9735286 0.180061
vn 0.1091111 0.9740794 -0.1981515
vn 0.322338 0.8580933 -0.3997175
vn 0.7767923 0.6012322 -0.1873861
vn -0.3471506 0.8709997 0.3476293
vn 0.2925355 0.809269 0.5094181
vn 0.008868107 0.4652336 -0.8851436
vn -0.5324368 0.7768201 -0.3362465
vn -0.384322 0.8229367 0.4184158
vn -0.7059991 0.6293741 -0.324736
vn -0.6647567 0.6959534 -0.2715649
vn -0.3505548 0.845461 0.4028736
vn -0.5509261 0.7518981 -0.3621185
vn -0.620154 0.7453883 -0.2445513

usemtl MatGrassDark
f 3/3/1 2/2/1 1/1/1
f 4/6/2 3/5/2 1/4/2
f 5/7/3 4/6/3 1/4/3
f 6/9/4 5/8/4 1/1/4
f 2/10/5 6/5/5 1/1/5
f 7/12/6 3/3/6 4/11/6
f 8/13/7 2/2/7 3/3/7
f 9/14/8 5/8/8 6/9/8
f 10/16/9 4/15/9 5/8/9
f 8/13/10 7/12/10 11/17/10
f 10/16/11 9/14/11 11/6/11
f 7/5/12 10/10/12 11/4/12
f 3/3/13 7/12/13 8/13/13
f 5/8/14 9/14/14 10/16/14
f 4/1/15 10/10/15 7/5/15

